# xmcd
# 
# Track frame offsets:
#     150
#     18048
#     34296
#     52644
#     66192
#     80565
#     96288
#     112611
#     127059
#     140982
#     157005
#     171153
#     186426
#     201099
#     219222
#     233820
#     251343
#     268041
# 
# Disc length: 3772
# 
# Revision: 1
# Processed by: cddbd v1.5.2PL0 Copyright (c) Steve Scherf et al.
# Submitted via: BonkEnc v1.0.8
# 
DISCID=f90eba12
DTITLE=Various Artist - Promo Only Country Radio December 2008
DYEAR=2008
DGENRE=Country
TTITLE0=Brad Paisley ft. Keith Urban - Start A Band
TTITLE1=Toby Keith - God Love Her
TTITLE2=Dean Brody - Brothers
TTITLE3=Kenny Chesney with Mac McAnally - Down the Road
TTITLE4=Sara Evans - Low
TTITLE5=Adam Gregory - What It Takes
TTITLE6=Darius Rucker - It Won't Be Like This For Long
TTITLE7=Jewel - Till It Feels Like Cheating
TTITLE8=Carolina Rain - Weight Of The World
TTITLE9=Crystal Shawanda - My Roots Are Showing
TTITLE10=Pat Garrett - Moose Shootin' Mama
TTITLE11=Eric Durrance - Turn it Off
TTITLE12=Shane O'Dazier - I Hate This Town
TTITLE13=Ha-Ash with Brandi Carlile - Already Home
TTITLE14=Sarah Buxton - Space
TTITLE15=Will Hedgecock - Sweet Music Man
TTITLE16=Elana James and The Hot Club Of Cowtown - Hey, Beautiful
TTITLE17=Milton - Everybody Loves You
EXTD=
EXTT0=
EXTT1=
EXTT2=
EXTT3=
EXTT4=
EXTT5=
EXTT6=
EXTT7=
EXTT8=
EXTT9=
EXTT10=
EXTT11=
EXTT12=
EXTT13=
EXTT14=
EXTT15=
EXTT16=
EXTT17=
PLAYORDER=
